<?xml version="1.0" standalone="no"?>
<!DOCTYPE svg PUBLIC "-//W3C//DTD SVG 20010904//EN"
 "http://www.w3.org/TR/2001/REC-SVG-20010904/DTD/svg10.dtd">
<svg version="1.0" xmlns="http://www.w3.org/2000/svg"
 width="800.000000pt" height="800.000000pt" viewBox="0 0 800.000000 800.000000"
 preserveAspectRatio="xMidYMid meet">
<metadata>
Created by potrace 1.16, written by Peter Selinger 2001-2019
</metadata>
<g transform="translate(0.000000,800.000000) scale(0.100000,-0.100000)"
fill="#000000" stroke="none">
<path d="M924 4710 c-97 -20 -188 -90 -220 -166 -10 -25 -14 -87 -14 -237 l0
-203 35 -58 c22 -36 30 -58 22 -60 -258 -68 -356 -125 -414 -244 -27 -55 -28
-63 -31 -245 -3 -137 -1 -192 8 -202 11 -13 108 -15 701 -15 687 0 689 0 710
21 20 20 21 29 17 203 -3 158 -7 187 -25 228 -47 103 -186 197 -351 234 -42
10 -78 19 -80 20 -1 1 12 25 30 54 l33 53 3 208 c3 205 3 208 -22 257 -49 96
-145 150 -278 157 -46 2 -102 0 -124 -5z m212 -55 c56 -16 126 -71 151 -119
22 -40 31 -323 14 -402 -15 -67 -64 -124 -133 -155 -44 -20 -69 -24 -148 -24
-79 0 -104 4 -148 24 -60 27 -117 88 -132 140 -13 49 -13 336 1 386 15 55 93
130 156 149 63 19 177 20 239 1z m-286 -720 c50 -26 162 -38 241 -26 39 7 83
18 99 26 24 12 38 12 116 -4 173 -36 291 -102 349 -195 l30 -49 3 -179 4 -178
-131 0 -131 0 0 84 0 85 43 3 42 3 3 83 c3 82 2 83 -20 80 -21 -3 -23 -9 -26
-60 -3 -50 -6 -58 -22 -58 -19 0 -20 8 -20 143 0 98 -4 147 -12 155 -17 17
-779 17 -796 0 -8 -8 -12 -57 -12 -155 0 -135 -1 -143 -20 -143 -16 0 -19 8
-22 58 -3 51 -5 57 -26 60 -22 3 -23 2 -20 -80 l3 -83 43 -3 42 -3 0 -85 0
-84 -131 0 -131 0 4 178 c3 159 5 181 25 218 53 99 179 171 369 208 38 8 70
15 72 15 2 1 16 -6 32 -14z m530 -365 l0 -240 -360 0 -360 0 0 240 0 240 360
0 360 0 0 -240z"/>
<path d="M958 3694 c-53 -28 -72 -98 -43 -154 22 -42 53 -60 106 -60 56 0 93
25 109 76 35 104 -75 191 -172 138z m115 -56 c9 -11 17 -31 17 -45 0 -29 -41
-73 -68 -73 -30 0 -72 38 -72 66 0 74 76 106 123 52z"/>
<path d="M4278 4520 c-114 -34 -173 -158 -118 -247 19 -32 77 -74 134 -98 47
-20 86 -54 86 -75 0 -11 -11 -27 -25 -36 -32 -21 -81 -14 -148 21 -27 14 -52
25 -57 25 -4 0 -13 -28 -19 -62 -12 -69 -11 -71 49 -88 47 -13 169 -13 211 2
131 44 172 188 77 274 -12 12 -52 36 -88 54 -101 50 -121 77 -84 114 22 22 61
20 120 -8 28 -13 56 -21 61 -17 17 10 33 115 20 123 -38 24 -166 34 -219 18z"/>
<path d="M2110 4512 c0 -4 36 -131 80 -281 44 -151 80 -276 80 -278 0 -2 39
-2 87 -1 l86 3 89 275 c48 151 88 278 88 283 0 4 -31 7 -69 7 l-68 0 -6 -44
c-8 -56 -108 -386 -117 -386 -4 0 -31 97 -61 215 l-53 215 -68 0 c-37 0 -68
-4 -68 -8z"/>
<path d="M2720 4235 l0 -285 70 0 69 0 1 285 0 285 -70 0 -70 0 0 -285z"/>
<path d="M3028 4238 l2 -283 67 0 67 0 -3 140 c-1 77 -1 138 2 135 2 -3 41
-63 86 -135 45 -71 89 -135 97 -141 15 -12 132 1 148 16 4 5 -38 69 -94 144
-64 86 -99 140 -94 148 4 7 42 63 84 123 42 61 80 116 84 123 5 9 -11 12 -68
12 -75 0 -76 0 -93 -33 -26 -48 -137 -206 -145 -207 -4 0 -4 54 -1 120 l6 120
-74 0 -74 0 3 -282z"/>
<path d="M3623 4240 c-50 -153 -88 -282 -85 -285 3 -3 33 -5 68 -5 61 0 63 0
68 30 3 17 9 44 12 60 l6 31 96 -3 97 -3 11 -55 10 -55 73 -3 c67 -3 73 -1 69
15 -3 10 -41 138 -84 286 l-78 267 -86 0 -86 0 -91 -280z m206 43 c30 -117 32
-113 -40 -113 l-61 0 7 28 c22 93 59 193 66 180 4 -7 17 -50 28 -95z"/>
<path d="M4810 4235 l0 -285 71 0 72 0 -8 129 c-4 76 -3 131 3 134 5 4 19 -11
31 -33 33 -59 142 -224 153 -231 12 -8 131 10 143 22 6 6 6 14 0 23 -6 7 -52
69 -103 136 -59 79 -89 127 -84 134 31 39 172 245 172 250 0 3 -33 6 -73 6
-67 0 -75 -2 -84 -22 -6 -13 -41 -67 -79 -121 l-69 -98 -3 121 -3 120 -69 0
-70 0 0 -285z"/>
<path d="M5360 4306 c0 -128 4 -226 11 -243 28 -74 99 -112 210 -113 120 0
183 29 217 103 17 36 21 71 25 255 l6 212 -74 0 -75 0 3 -206 2 -205 -28 -25
c-38 -33 -96 -33 -134 0 l-28 24 3 206 4 206 -71 0 -71 0 0 -214z"/>
<path d="M6000 4518 c-12 -88 -56 -555 -53 -560 7 -14 113 -9 113 5 1 27 20
255 26 300 3 27 9 45 13 42 3 -4 26 -70 51 -148 l46 -142 55 -3 55 -3 53 143
c29 79 57 147 61 151 9 10 18 -62 26 -225 l7 -128 58 0 c32 0 60 3 62 8 2 4
-6 124 -19 267 -13 143 -23 268 -24 278 0 16 -9 17 -81 15 l-81 -3 -51 -157
c-28 -87 -53 -158 -57 -158 -3 0 -25 66 -49 148 -23 81 -44 153 -46 160 -3 8
-29 12 -85 12 -44 0 -80 -1 -80 -2z"/>
<path d="M6837 4513 c-8 -14 -177 -540 -177 -552 0 -8 21 -11 67 -9 l67 3 10
55 11 55 96 3 96 3 12 -61 12 -60 70 0 c44 0 69 4 69 11 0 6 -27 104 -61 218
-33 113 -69 236 -80 274 l-20 67 -84 0 c-46 0 -86 -3 -88 -7z m114 -228 c15
-57 24 -107 21 -110 -8 -8 -110 -6 -115 3 -5 9 55 212 63 212 3 0 17 -47 31
-105z"/>
<path d="M7287 4238 l2 -283 68 0 68 0 0 90 0 90 35 0 c34 0 36 -3 85 -95 50
-95 50 -95 85 -92 54 5 110 22 110 33 0 6 -27 49 -60 96 -63 91 -69 107 -45
117 8 3 29 27 45 53 58 91 35 205 -50 250 -39 21 -56 23 -194 23 l-151 0 2
-282z m247 161 c21 -17 26 -29 26 -65 0 -60 -32 -94 -89 -94 -22 0 -42 4 -45
9 -3 4 -3 45 1 90 l6 81 37 0 c23 0 48 -8 64 -21z"/>
<path d="M2610 3671 c0 -139 0 -139 24 -145 56 -14 106 32 106 96 0 74 -45
118 -92 89 -17 -10 -18 -7 -18 44 0 30 -4 55 -10 55 -6 0 -10 -53 -10 -139z"/>
<path d="M3030 3765 c0 -43 -1 -45 -30 -45 -50 0 -80 -38 -80 -100 0 -41 5
-56 25 -76 19 -19 31 -23 48 -18 12 4 30 7 40 6 15 -1 17 12 17 139 0 86 -4
139 -10 139 -5 0 -10 -20 -10 -45z"/>
<path d="M3147 3702 c-22 -24 -29 -90 -14 -131 13 -36 53 -57 90 -45 26 8 21
22 -7 17 -35 -7 -66 13 -66 42 0 23 3 25 51 25 l52 0 -6 42 c-8 63 -63 91
-100 50z"/>
<path d="M3830 3700 c-31 -31 -28 -123 5 -155 13 -14 31 -25 40 -25 9 0 27 11
40 25 21 20 25 34 25 80 0 62 -22 95 -65 95 -14 0 -34 -9 -45 -20z"/>
<path d="M4020 3585 c0 -83 4 -135 10 -135 6 0 10 15 10 34 0 30 3 34 34 40
50 10 70 37 70 100 1 39 -4 60 -18 75 -21 23 -56 27 -74 9 -9 -9 -12 -9 -12 0
0 7 -4 12 -10 12 -6 0 -10 -52 -10 -135z"/>
</g>
</svg>
